<mxfile host="app.diagrams.net" modified="2024-07-19T05:19:48.436Z" agent="Mozilla/5.0 (Windows NT 10.0; Win64; x64) AppleWebKit/537.36 (KHTML, like Gecko) Chrome/126.0.0.0 Safari/537.36 Edg/126.0.0.0" version="24.7.1" etag="o5yYnOQ9yp7TNl_htDFE" type="github">
  <diagram name="Page-1" id="1JnFQBl7OS7kUwGBh4H8">
    <mxGraphModel>
      <root>
        <mxCell id="0" />
        <mxCell id="1" parent="0" />
      </root>
    </mxGraphModel>
  </diagram>
</mxfile>
